<svg width="400" height="150" viewBox="0 0 400 150" fill="none" xmlns="http://www.w3.org/2000/svg">
  <defs>
    <linearGradient id="logo-gradient" x1="0%" y1="0%" x2="100%" y2="100%">
      <stop offset="0%" stop-color="#2E9E9C" />
      <stop offset="100%" stop-color="#283570" />
    </linearGradient>
  </defs>
  <g transform="translate(20, 25)">
    <!-- Abstract Tech Logo Mark representing 'Intuik' -->
    <path d="M50 0C22.3858 0 0 22.3858 0 50C0 77.6142 22.3858 100 50 100C77.6142 100 100 77.6142 100 50C100 22.3858 77.6142 0 50 0ZM72.5 65.5C72.5 65.5 61.5 82 45 82C31.5 82 22 70 22 70L29.5 63C29.5 63 36.5 72 45.5 72C57.5 72 63.5 59.5 63.5 59.5L72.5 65.5ZM77.5 50.5C77.5 50.5 70.5 67 52.5 67C41 67 33.5 56.5 33.5 56.5L40 50C40 50 45.5 58.5 53 58.5C64 58.5 69.5 45.5 69.5 45.5L77.5 50.5ZM55.5 37.5C51.5 31.5 43 31.5 43 31.5L34 40.5L25 31.5L40.5 16C40.5 16 52 16.5 60.5 25.5C67 32 68.5 40 68.5 40L58.5 45C58.5 45 57 39.5 55.5 37.5Z" fill="url(#logo-gradient)"/>
  </g>
  <text x="140" y="90" font-family="'Inter', sans-serif" font-weight="900" font-size="46" fill="#1D1D4A" letter-spacing="1">INTUIK</text>
</svg>
